# xmcd CD Database Entry
#
# Track frame offsets:
# 150
# 20884
# 42896
# 60317
# 76647
# 95021
# 113243
# 131465
# 149839
# 173200
# 191267
# 214117
# 236449
# 254643
# 274812
# 295534
#
# Disc length: 4233 seconds
#
# Revision: 3
# Processed by: cddbd v1.4PL0 Copyright (c) Steve Scherf et al.
# Submitted via: tcd 2.0b
#
DISCID=e6108710
DTITLE=Desconocido - Desconocido
DYEAR=1900
DGENRE=
TTITLE0=No consigo olvidarla
TTITLE1=Ella
TTITLE2=Amores como el nuestro
TTITLE3=Cuanto la quiero cuanto la extraño
TTITLE4=Fué su primera vez
TTITLE5=Mi media mitad
TTITLE6=No me acostumbro
TTITLE7=Luna negra
TTITLE8=Que locura enamorarme de ti
TTITLE9=Lluvia
TTITLE10=Magia rosa
TTITLE11=A pesar del tiempo
TTITLE12=¿ Y qué me pasa ?
TTITLE13=Cuando acaba el placer
TTITLE14=Amor desechable
TTITLE15=Frio en mi
EXTD=Varios
EXTT0=
EXTT1=
EXTT2=
EXTT3=
EXTT4=
EXTT5=
EXTT6=
EXTT7=
EXTT8=
EXTT9=
EXTT10=
EXTT11=
EXTT12=
EXTT13=
EXTT14=
EXTT15=
PLAYORDER=
